<?xml version="1.0" encoding="utf-8"?>
<!-- Generator: Adobe Illustrator 19.0.1, SVG Export Plug-In . SVG Version: 6.00 Build 0)  -->
<svg version="1.1" id="Слой_1" xmlns="http://www.w3.org/2000/svg" xmlns:xlink="http://www.w3.org/1999/xlink" x="0px" y="0px"
	 width="439px" height="172px" viewBox="0 0 439 172" style="enable-background:new 0 0 439 172;" xml:space="preserve">
<style type="text/css">
	.st0{fill:#FFFFFF;}
</style>
<path class="st0" d="M201.4,83.2c-7,0-13.4,2-19.2,6.1c-5.8,4.1-9.9,9.4-12.2,16.1c-0.6,1.7-1.8,2.6-3.7,2.6c-1.3,0-2.4-0.6-3.1-1.7
	c-0.8-1-0.9-2.2-0.4-3.6L197,9.3c0.9-2.1,2.4-3.1,4.7-3.1s3.8,1,4.6,3.1l34.3,93.3c0.5,1.3,0.3,2.5-0.4,3.6
	c-0.8,1.1-1.8,1.7-3.1,1.7c-1.8,0-3-0.9-3.7-2.6c-2.4-6.6-6.5-12-12.2-16.1c-5.8-4.1-12.2-6.1-19.2-6.1H201.4z M213.9,69.9
	c3-4.2,3.7-8.7,1.9-13.7l-14.1-39.8l-14.2,39.8c-1.7,4.9-1.1,9.5,1.8,13.7c3,4.3,7.2,6.4,12.4,6.4C206.8,76.3,210.9,74.2,213.9,69.9
	z"/>
<path class="st0" d="M255.8,106.1c-0.7,1.2-1.7,1.8-3.1,1.8c-1.5,0-2.6-0.6-3.3-1.8c-0.8-1.3-0.8-2.6,0-3.8l16.2-27.2
	c3.6-6,5.4-12.4,5.4-19.3c0-6.9-1.8-13.4-5.3-19.3l-14.4-24.6c-0.8-1.2-0.8-2.5-0.1-3.7c0.8-1.2,1.8-1.8,3.3-1.8h0.3
	c1.5,0,2.6,0.6,3.3,1.8l16.5,29c1.5,2.7,3.7,4,6.7,4c3,0,5.3-1.3,6.8-4l16.6-29c0.7-1.2,1.7-1.8,3.1-1.8h0.3c1.4,0,2.5,0.6,3.1,1.8
	c0.8,1.2,0.8,2.5,0,3.7L297,36.2c-3.5,6.1-5.3,12.6-5.3,19.5c0.1,7,1.9,13.5,5.5,19.3l16.4,27.2c0.7,1.2,0.7,2.5,0,3.8
	c-0.8,1.2-1.9,1.8-3.3,1.8H310c-1.4,0-2.5-0.6-3.1-1.8L288,73.9c-1.4-2.5-3.7-3.7-6.7-3.7c-2.9,0-5.1,1.2-6.5,3.7L255.8,106.1z"/>
<path class="st0" d="M340.5,10v94c0,2.6-1.3,3.8-3.8,3.8s-3.8-1.3-3.8-3.8V10c0-2.6,1.3-3.8,3.8-3.8S340.5,7.5,340.5,10z"/>
<path class="st0" d="M365.3,9.2c0-2.3,1.1-3.4,3.4-3.4h31.4c10.1,0,18.5,3.5,25.5,10.4c4.3,4.4,7,9.5,8.3,15.5
	c0.8,4.4,1.1,12.9,1.1,25.8c0,12.9-0.4,21.5-1.1,25.9c-1.1,6-3.9,11.1-8.3,15.5c-6.9,6.9-15.4,10.4-25.5,10.4
	c-10,0-18.4-3.5-25.5-10.4c-4.3-4.4-7-9.5-8.1-15.5c-0.9-4.4-1.3-13-1.3-25.9V9.2z M400.1,102.4c7.6,0,14-2.6,19.3-7.8
	c3.4-3.5,5.6-7.9,6.7-13.2c0.8-4.2,1.1-12.1,1.1-23.9c0-11.7-0.4-19.6-1.1-23.9c-1-5.2-3.3-9.6-6.7-13.1c-5.3-5.2-11.8-7.8-19.3-7.8
	c-7.6,0-14,2.6-19.2,7.8c-3.5,3.5-5.7,7.9-6.7,13.1c-0.9,4.3-1.3,12.2-1.3,23.9c0,11.8,0.4,19.7,1.3,23.9c0.9,5.3,3.2,9.7,6.7,13.2
	C386.2,99.8,392.6,102.4,400.1,102.4z"/>
<path class="st0" d="M133.8,27c-9.2-13.5-23.1-22.6-39.1-25.7c-9-1.7-17.9-1.7-26.5-0.3c-0.2,0-0.3,0-0.5,0.1
	C37.4,6.3,12,29.8,5.9,61.7C2,82.2,5.1,102.5,13.5,120c0.1,0.3,0.2,0.5,0.4,0.7c12.6,25.7,36.8,45.4,67,51.2c0.1,0,0.3,0,0.4,0
	c0,0,0,0,0,0c0.1,0,0.2,0,0.3,0c0,0,0.1,0,0.1,0c0.1,0,0.2,0,0.2-0.1c0,0,0.1,0,0.1-0.1c0.1,0,0.1-0.1,0.2-0.1c0,0,0.1-0.1,0.1-0.1
	c0,0,0.1,0,0.1,0c0,0,0,0,0.1-0.1c0.1-0.1,0.1-0.1,0.2-0.2c0,0,0.1-0.1,0.1-0.1c0.1-0.1,0.1-0.1,0.2-0.2c0,0,0.1-0.1,0.1-0.1
	c0.1-0.1,0.1-0.2,0.1-0.3c0,0,0-0.1,0-0.1c0-0.1,0.4-1,0.1-1.7c-0.1-0.2-0.4-1-0.4-1c-10.4-15.3-10.3-33.1-8.3-45.5
	c0.4-2.1,2.7-10.2,15-9.6c0,0,0.1,0.1,0.1,0.1c11.5,1.1,22.9-1.7,32.6-8.3c10.9-7.4,18.3-18.6,20.7-31.6
	C146.3,56.8,143,40.5,133.8,27z M63.6,54.4L63.6,54.4C63.6,54.4,63.6,54.4,63.6,54.4C63.7,54.3,63.7,54.3,63.6,54.4
	c0.5-0.7,4.7-5.5,11.2-6.3c0.1,0,0.2,0,0.4-0.1c2.5,0,4.7,0.5,6.6,1.6c1.1,0.7,2,1.5,2.8,2.3c0.2,0.3,3.5,2.7-1.5,3.9c0,0,0,0,0,0
	c-5,1.6-8.7,5.7-9.7,11.1c-0.9,4.7,0.5,9.4,3.1,13.3c0,0,1.6,2.6,1.6,8.8v0.1c0,3-1,6.9,0.5,11.9h0c0,0,2.2,5.8-3.6,2.6
	c-4.4-2.6-8.2-6.3-11.2-10.6c-5.3-7.8-7.3-17.3-5.5-26.6C59.1,61.9,60.9,57.8,63.6,54.4z M88.3,83.2c-3.4-0.7-6.4-2.6-8.4-5.5
	c-2-2.9-2.7-6.4-2-9.8c1-5.4,7.6-8.3,12.2-8.3c4.4,0,8.3,2.4,10.7,6.5c2.4,4.2,3.3,9.8-1.7,14.6C96.3,83,92.1,83.9,88.3,83.2z
	 M95,56.1C95,56.1,95,56.1,95,56.1c-2-1.3-4.4-3.5-4.7-4.1c0,0-0.1,0-0.1-0.1c0,0,0,0,0,0h0c-1.2-2-3.1-4.6-6-6.3
	c-1.1-0.7-2.3-1.2-3.6-1.6c3.4-0.6,6.8-0.6,10.3,0c10.3,1.9,17.5,10.8,17.7,20.9c-0.3,9.7-2.3,3-2.3,3l0,0c-0.4-1.6-0.9-2.9-1.5-4
	C102.4,59.9,99,57.3,95,56.1z M130,29.6c1.2,1.8,2.3,3.6,3.3,5.4c1.8,3.4,8,17.4-1.7,27.7c-2.5,2.1-3.8,3.5-6.1,4.4
	C117.4,69.4,114,57,114,57v0c-3-5.3-6.4-9.9-10.9-13.1c-3.2-3.1-4.9-7-5.2-9.7c0.2-6.1-1-14.3-5.8-21.1c-0.7-1-1.6-2-2.5-2.9
	c-0.2-0.6-1.3-5.4,6.4-4C109.9,9.5,121.9,17.7,130,29.6z M10.4,62.6c5.4-28.5,27.2-49.8,53.7-56.1C67.5,6,71.7,6,76.2,7.3
	c5.1,1.7,9.1,4.6,11.8,8.5c1.9,2.6,3,5.6,3.7,8.5c0.2,0.9,1.4,9.8-10.1,15.1c0,0,0,0,0,0c-5.1,0.6-10.3,2.4-14.6,5.4
	c-5.3,3.6-9,8.6-12,14.3c0,0,0,0,0,0c-2,7.9-7.7,11.4-10,12.6c-1.4,0.8-5.4,2.9-7.8,4.7C33.3,79,29,83,25,88h0
	c-11.4,18-14.8,5.8-15.1,4.3C8.4,82.5,8.5,72.8,10.4,62.6z M27.1,133.5c-8.7-11.4-7.2-22-5.8-26.7c3.9-11.5,10.2-20.6,18.4-26.6
	c0.7-0.5,1.3-0.9,1.9-1.3c0.4-0.2,10.2-6.4,12.4,3c0,0.2,0.1,0.3,0.1,0.5c0,0,0,0,0,0.1c0,0,0,0,0,0c1.1,4.6,3.1,9,5.8,13
	c2.2,3.2,4.7,6,7.6,8.4c1.8,1.9,4.5,6.1,3.4,13.4c-0.1,0.9-0.2,1.7-0.3,2.2c-1.5,8.2-2.4,19.4,0,31l0,0c0,0,0,0,0,0
	c0.3,1.4,0.7,2.9,1.1,4.3c0.8,4.3,0.9,10-4.8,8.7c-1.3-0.5-2.5-1-3.8-1.5c-2.7-1.4-4.5-2.3-5.8-2.7
	C45.5,152.9,35.1,144.1,27.1,133.5z M120,100.7c-6.7,4.6-14.4,7.2-22.3,7.7c-0.4,0-0.8-0.1-1.2-0.1c-7.9-0.5-11.1-4-12.1-5.5
	c-0.8-1.6-1.4-3.1-1.8-4.6l0,0c0,0-3.2-9.2,8.9-10.2c0.6,0,1.2-0.1,1.9-0.1c0,0,0,0,0.1,0c0,0,0,0,0,0c2.9-0.3,5.7-1.1,8.2-2.5
	c0.1,0,3.8-2.4,3.8-2.4c1.2-1,10-8.2,19.1-11.2l0,0c0.7-0.2,1.4-0.5,2.2-0.8c1.1-0.4,2.4-0.8,3.1-1.2c1-0.5,2.5-1.4,3.5-2.1
	c1-0.7,7.3-5.6,6.4,1.4c0,0-0.3,1.6-0.6,2.9C136.5,84.3,129.9,93.9,120,100.7z"/>
</svg>
