<?xml version="1.0" encoding="utf-8"?>
<!-- Generator: Adobe Illustrator 19.0.1, SVG Export Plug-In . SVG Version: 6.00 Build 0)  -->
<svg version="1.1" id="Слой_1" xmlns="http://www.w3.org/2000/svg" xmlns:xlink="http://www.w3.org/1999/xlink" x="0px" y="0px"
	 viewBox="0 0 42 390" style="enable-background:new 0 0 42 390;" xml:space="preserve">
<style type="text/css">
	.st0{fill:#8DD2D7;}
</style>
<path class="st0" d="M41.2,195c0-1,0-2,0-3h-0.1c-0.7-47-10.1-70.2-19.1-93.7C12.8,74.1,3.2,49,3.2,0H0.3c0,50,9.7,74.8,19.1,99.3
	c9.1,23.7,18.5,47.5,18.9,95.5c-0.4,47.1-9.8,72-18.9,95.7C10,314.9,0.3,340,0.3,390h2.9c0-49,9.6-74.1,18.9-98.3
	c9-23.5,18.4-47.7,19.1-93.7h0.1C41.3,197,41.2,196,41.2,195z"/>
</svg>
