<?xml version="1.0" encoding="utf-8"?>
<!-- Generator: Adobe Illustrator 20.1.0, SVG Export Plug-In . SVG Version: 6.00 Build 0)  -->
<svg version="1.1" id="Слой_1" xmlns="http://www.w3.org/2000/svg" xmlns:xlink="http://www.w3.org/1999/xlink" x="0px" y="0px"
	 viewBox="0 0 76 128" style="enable-background:new 0 0 76 128;" xml:space="preserve">
<style type="text/css">
	.st0{fill:#688438;}
</style>
<path class="st0" d="M24.5,18.8L13.9,10c0-0.1-0.1-0.2-0.2-0.2c-0.3-0.4-0.8-0.6-1.3-0.5c-0.4,0-0.9,0.2-1.2,0.5
	C11.1,9.9,11.1,10,11,10L0.6,18.8c-0.6,0.5-0.7,1.5-0.2,2.1c0.3,0.4,0.7,0.5,1.1,0.5c0.3,0,0.6-0.1,0.9-0.3l8.6-7.2v81.3l-7.3,6.1
	c-0.6,0.5-0.7,1.5-0.2,2.1c0.3,0.4,0.7,0.5,1.2,0.5c0.3,0,0.6-0.1,0.9-0.3L11,99v2.4l-7.3,6.1C3.1,108,3,109,3.5,109.6
	c0.3,0.4,0.7,0.5,1.2,0.5c0.3,0,0.6-0.1,0.9-0.3l5.4-4.5v2.4l-7.3,6.1c-0.6,0.5-0.7,1.5-0.2,2.1c0.3,0.4,0.7,0.5,1.2,0.5
	c0.3,0,0.6-0.1,0.9-0.3l5.4-4.5v5.4c0,0.8,0.7,1.5,1.5,1.5s1.5-0.7,1.5-1.5v-5.2l5.3,4.4c0.3,0.2,0.6,0.3,1,0.3s0.9-0.2,1.2-0.5
	c0.5-0.6,0.4-1.6-0.2-2.1l-7.2-6v-2.4l5.3,4.4c0.3,0.2,0.6,0.3,1,0.3s0.9-0.2,1.2-0.5c0.5-0.6,0.4-1.6-0.2-2.1l-7.2-6v-2.4l5.3,4.4
	c0.3,0.2,0.6,0.3,1,0.3s0.9-0.2,1.2-0.5c0.5-0.6,0.4-1.6-0.2-2.1l-7.2-6V14l8.5,7.1c0.3,0.2,0.6,0.3,1,0.3s0.9-0.2,1.2-0.5
	C25.2,20.2,25.1,19.3,24.5,18.8z"/>
<path class="st0" d="M61.5,38.3c-0.3,0-0.6,0.1-0.9,0.3L52,45.8V0h-3v45.7l-8.5-7.1c-0.3-0.2-0.6-0.3-1-0.3s-0.9,0.2-1.1,0.5
	c-0.5,0.6-0.4,1.6,0.2,2.1l10.5,8.8c0,0.1,0.1,0.2,0.2,0.2c0.3,0.4,0.8,0.6,1.3,0.5c0.4,0,0.9-0.2,1.2-0.5c0.1-0.1,0.1-0.2,0.2-0.2
	l10.5-8.8c0.6-0.5,0.7-1.5,0.2-2.1C62.4,38.5,61.9,38.3,61.5,38.3z"/>
<path class="st0" d="M43.7,83.1c-0.3-0.2-0.6-0.3-1-0.3s-0.9,0.2-1.1,0.5c-0.5,0.6-0.4,1.6,0.2,2.1l7.2,6V128h3V91.5l7.3-6.1
	c0.6-0.5,0.7-1.5,0.2-2.1c-0.3-0.4-0.7-0.5-1.1-0.5c-0.3,0-0.7,0.1-0.9,0.3L52,87.7v-2.4l7.3-6.1c0.6-0.5,0.7-1.5,0.2-2.1
	c-0.3-0.4-0.7-0.5-1.1-0.5c-0.3,0-0.7,0.1-0.9,0.3L52,81.4V79l7.3-6.1c0.6-0.5,0.7-1.5,0.2-2.1c-0.3-0.4-0.7-0.5-1.1-0.5
	c-0.3,0-0.7,0.1-0.9,0.3L52,75v-5.4c0-0.8-0.7-1.5-1.5-1.5S49,68.9,49,69.7v5.2l-5.3-4.4c-0.3-0.2-0.6-0.3-1-0.3s-0.9,0.2-1.1,0.5
	c-0.5,0.6-0.4,1.6,0.2,2.1l7.2,6v2.4l-5.3-4.4c-0.3-0.2-0.6-0.3-1-0.3s-0.9,0.2-1.1,0.5c-0.5,0.6-0.4,1.6,0.2,2.1l7.2,6v2.4
	L43.7,83.1z"/>
</svg>
