<?xml version="1.0" encoding="utf-8"?>
<!-- Generator: Adobe Illustrator 20.1.0, SVG Export Plug-In . SVG Version: 6.00 Build 0)  -->
<svg version="1.1" id="Слой_1" xmlns="http://www.w3.org/2000/svg" xmlns:xlink="http://www.w3.org/1999/xlink" x="0px" y="0px"
	 viewBox="0 0 108 130" style="enable-background:new 0 0 108 130;" xml:space="preserve">
<style type="text/css">
	.st0{fill:#343D2C;}
</style>
<path class="st0" d="M108,43v-5c-0.1,0-0.1,0-0.2,0c-4.5,0-11.4,0.8-16.3,2.4C82,17.5,62.6,4.6,57,1.2V0h-5v1
	c-5,2.9-25.3,15.9-35.1,39.5c-5-1.6-12.1-2.4-16.7-2.4c-0.1,0-0.2,0-0.2,0v5c0.1,0,0.1,0,0.2,0c4,0,10.4,0.7,14.8,2.1
	c-2.3,6.7-3.6,14.2-3.6,22.4c0,11.8,4.2,22.3,12.2,30.2c7.4,7.4,17.5,12,28.1,12.6c0,7.2,0,17.6,0,19.6H57v-19.7
	c20-1,40.1-17,40.1-42.8c0-8.3-1.5-15.8-3.8-22.6c4.3-1.3,10.6-2,14.5-2C107.9,43,108,43,108,43z M27.7,93.5
	c-6.8-6.8-10.4-15.8-10.4-26c0-7.4,1.3-14.2,3.3-20.3C35.8,54.1,50,69.4,51.5,94.4c0,0.4,0.1,4.6,0.1,9.9
	C42.6,103.7,34,99.8,27.7,93.5z M52,72.6c-6-14.9-17.5-24.7-29.2-30C30.5,24.4,45,12.8,52,8.1V72.6z M57,8.1
	c7,4.7,21.5,16.3,29.2,34.5C74.5,47.7,64,57.3,57,72V8.1z M57,104.4V93c2-24.3,16-39.2,30.9-45.8c2.1,6.1,3.3,12.9,3.3,20.4
	C91.2,89.7,75,103.3,57,104.4z"/>
</svg>
