<svg id="Слой_1" xmlns="http://www.w3.org/2000/svg" viewBox="0 0 334 100"><style>.st0{fill:#fff}</style><path class="st0" d="M138.4 42c4.4-5.5 8.2-4.4 9.6-3.8 1.4.6 2.8 4 1.5 3.8-1.2-.2-.3-.9-1.8-2.2-1.5-1.4-5.5 0-8.3 3.9-4.2 6-3.4 11-.2 11.8 7.4.1 9.4-14.2 10.2-20.7.8-7.7 1.3-15.2 2-24.1.5-6.7 1-11.3 3.8-10.7 5 1-1.4 23.8-2.9 30.2-.7 6.3-2.5 22.1 1.4 22.5 2.1.2 6.4-2.8 12.3-9.7-.4-4.2-.7-9.1 1.1-10.4.7-.6 1.8-.8 2.7-.4 1.3.5 2.3 1.8 2.8 3.4 1.1 3.3-.6 4.8-3.1 7.1l-.8.8c-.2 1.5-.3 6.2 2.1 6.5 8.1 1.1 19.5-10.7 21.8-13.3-.9-1.9-1.4-4.1-.8-5.6.3-.7 1.4-1.6 2.5-1.4 1 .2 1.9 1.2 2.1 1.6.5 1.5-.8 3.7-2.1 5.5 1.1 1 2.5 2.5 2.5 2.5 3.6 3.2 9.1 8.3 10.1 11.6.8-.3 3.2-1.3 3.5-1.5 2.9-1.1 18.6-8 20.8-8.7 1.3-.4 3.3-.1 4.1.8.9.9 1.5 2.8 1 4.3-2 5.9-.5 13-3.8 12.8-1.5-.1-1.3-6.9-.5-11.8 0 0 .6-2.1.3-2.6-.2-.3-1.1-.1-1.6.1-1.9.7-14.4 4.7-18.3 6.5-.8.4-2.3 1-4.9 2.2-.7 4.5-6.3 6.1-8.7 5.7-.5-.1-.7-.5-.8-.8-.4-2 3.1-4.1 4.8-5.5.3-3.3-4.6-9-7.4-12.1 0 0-1.8-1.9-2-2.3-.1.1-.1.2-.2.2-2.7 3.1-15 15.9-23.9 14.3-3-.5-2.8-5-3-7.2-5.9 6.7-9.7 9.8-12.3 9.9-5.3.1-4.4-8.6-4.1-13-.9 4.1-5.3 17.7-12.8 16.1-4.5-.9-3.8-9.8 1.3-16.3zm64.9 13.5c-.8.3-1.6.9-2.3 1.4.7-.1 1.7-.4 2.3-1.4zM168.9 41c.2-.2 3.2-3.1 2.8-3.9-.4-.7-1.3-.1-1.7.5-.6.8-1.1 2.8-1.1 3.4zm25.9-9.2c-.2 0-.6-.1-1 .6-.3.7-.3 2-.1 3 1.3-1.8 1.9-2.5 1.7-3.1 0 0-.1-.5-.6-.5zM153.9 9.3c-.3 1.8-1.5 10.7-1.8 15 .9-4.9 1.8-9.6 2.6-14.1 1-4.8-.5-3.2-.8-.9zm80.4 16.6s2.2.1 2.3 2.8c.1 2.7-1.1 3.4-2.9 3.4-1.8 0-1.2-2.3-1.5-3.8-.3-1.5 1.3-2.4 2.1-2.4zm10 57.1c.4-4.5 2.6-10.6 8-16.4-1.2-7.5-1-11.8-1.3-12.4-2.2 1.5-3.1 2.1-4.4 2-2.1-.1-4.4-3.8-4.3-8.4.1-5.4 2.9-11.6 7.3-12 1.7-.1 2.9 1.1 3.3 1.6.9 1.1 2.1 5.2.3 6.2-3 1.5.1-3.4-3.6-3.6-1.7-.1-4.9 3.4-5 6.3-.1 2.8 1.1 3.7 2.2 3.8.6 0 2.4-.3 3.2-.3 2.4 0 2.9 1.2 3.2 2.2.2.7-.1 5 1.1 12.3.5-.5 3.8-3 3.8-3 9.6-7.9 15-13.3 19.3-20 1.2-1.8 1.4-3.9 2.1-4.3.8-.4 3.6 2.6 3.5 3.7-1 6.2 1.8 13 5.2 13.5 4 .5 6.7-1.8 9.7-3.9 1.9-1.3 4.4-3.9 5.5-3.8 1.3.1 3.2 1.2 3.9 3.2.9 2.5 1.7 6.3 4.4 6.7h.1c1.5 0 8 .3 18.4-5.9.4-.2 3.5-2.1 3.9-1.8.4.3-1.5 2.1-2.2 3.1-.5.7-1.7 1.9-3 2.5-4.1 1.8-11.9 4.6-16.1 4.3-3.2-.2-5.3-.6-6.8-3-.7-1.2-1.1-3.6-2.1-3.9-1-.2-2.1.5-3.5 1.5-3.1 2.2-6 4.7-12 4.2-7.8-.6-8.4-14-9.2-13C277 47.2 259 64 259 64c-.8.7-3 3-3.7 3.7 2.1 14.1 3.5 26.9.9 30.9-1.1 1.6-2.6 1.5-2.9 1.5-8-.7-9.5-11.4-9-17.1zm8.7-11.9c-2.1 5-3.9 11.5-4 14.2-.2 6.3 2.6 11.5 4.6 11.6 1.3.1 1.3-2.4 1.4-4.8.2-4.4.2-14.1-2-21zM88.7 47.9c-1.1 2-2.2 5.3-5.1 4.8h-.1c-2.1-.5-3.6-1.9-4.8-3.7 1.7-2.3 3.4-4.3 4.6-5.4 1.9-1.7 4.9-3.9 6.7-4.3 1.8-.5 1.7-3.7 1.2-3.9-1.1-.6-2.8 0-3.6.3-3.2 1.2-7.2 5.6-10.5 10.1-.8-2.2-1.2-4.7-1.5-7-.1-1.2-2.3-2.1-2.7-.6-.5 2.2 0 6.7 2.2 10.5-1.9 2.8-3.4 5.4-4.1 6.8-.9 1.9-.2 5.2 1.6 2.1.9-1.6 2.6-4 4.3-6.4 1.5 1.6 3.4 2.9 5.8 3.5 6.6 1.7 9.4-6.5 10.6-9.2.3-.2-4.3 1.9-4.6 2.4zm-82.5 11c-4.4.4-5.6-2.9-5.9-4-.6-2.8 1-6 4.1-2 .8 1 1.6 1.6 2.9 1.5 2.7-.3 4-3.5 5.6-6.9 2.3-4.7 3.8-9.4 4-11.5.1-5.3-.4-11.1.5-19.1.4-4 1.8-8.4 3.1-8.9 3-1.1 4.5 2.5 4.1 7.6-.5 6.9-1.1 10.4-4.2 21.8-.1 13.1 1.4 15.7 4.2 16 4.5.5 8.5-9.7 11.8-19.4 1.3-4.1 1.4-7.7 3.8-7.4 3.1.4.2 4.9-.6 8.9-.4 2.2-1 4.6-1.1 8.7-.1 4.4.5 8 3.3 8.8 2.3.6 9.3-1 14.6-7.9 1.4-1.9 1.5-2.9 2.6-2.9.6 0 1.9.7 2.4 1.3.4.6-.3 1.7-.5 4.5-.1 1.6-.3 4.7.3 5.4 1 .1 3.8-4.1 4.8-2.5 1.1 1.6-4.1 7.9-6 7.6-2.7-.4-3.1-8.4-2.2-11.1-2.9 3.8-12.8 9.2-18.1 7.4-4-1.3-4-7.9-3.4-13.1-3.2 8.7-8.5 18-14.4 16.5-2.9-.7-4.8-5.1-4.7-15.1-.2.2-1.5 4-2.8 7.5-1.7 4.7-4.4 8-8.2 8.3zm16-47.7c-.7-.1-1.3 3.2-1.6 5.2-.6 4-.4 6.1-.6 12.5.7-2.5 4.3-16.6 2.2-17.7zm37.9 18s4.1 1.6 3.9 3.9c-.2 2.4-2.8 3-3.6 3-.8 0-2.3-1.5-2.2-3.7.1-2.2.9-3.1 1.9-3.2z"/></svg>