<?xml version="1.0" encoding="utf-8"?>
<!-- Generator: Adobe Illustrator 19.0.0, SVG Export Plug-In . SVG Version: 6.00 Build 0)  -->
<svg version="1.1" id="Слой_1" xmlns="http://www.w3.org/2000/svg" xmlns:xlink="http://www.w3.org/1999/xlink" x="0px" y="0px"
	 viewBox="0 0 500 250" style="enable-background:new 0 0 500 250;" xml:space="preserve">
<style type="text/css">
	.st0{fill:#FFFFFF;}
</style>
<path id="XMLID_30_" class="st0" d="M228.9,96.6c-8.1,0-15.6,2.3-22.3,7.1c-6.7,4.8-11.5,10.9-14.2,18.7c-0.7,2-2.1,3-4.3,3
	c-1.5,0-2.8-0.7-3.6-2c-0.9-1.2-1-2.6-0.5-4.2l39.7-108.4c1-2.4,2.8-3.6,5.5-3.6c2.7,0,4.4,1.2,5.3,3.6l39.8,108.3
	c0.6,1.5,0.3,2.9-0.5,4.2c-0.9,1.3-2.1,2-3.6,2c-2.1,0-3.5-1-4.3-3c-2.8-7.7-7.5-13.9-14.2-18.7c-6.7-4.8-14.2-7.1-22.3-7.1h-0.7
	V96.6z M243.4,81.2c3.5-4.9,4.3-10.1,2.2-15.9l-16.4-46.2l-16.5,46.2c-2,5.7-1.3,11,2.1,15.9c3.5,5,8.4,7.4,14.4,7.4
	C235.1,88.6,239.9,86.1,243.4,81.2z"/>
<path id="XMLID_12_" class="st0" d="M292,123.2c-0.8,1.4-2,2.1-3.6,2.1c-1.7,0-3-0.7-3.8-2.1c-0.9-1.5-0.9-3,0-4.4l18.8-31.6
	c4.2-7,6.3-14.4,6.3-22.4s-2.1-15.6-6.2-22.4l-16.7-28.6c-0.9-1.4-0.9-2.9-0.1-4.3c0.9-1.4,2.1-2.1,3.8-2.1h0.3c1.7,0,3,0.7,3.8,2.1
	l19.2,33.7c1.7,3.1,4.3,4.6,7.8,4.6s6.2-1.5,7.9-4.6l19.3-33.7c0.8-1.4,2-2.1,3.6-2.1h0.3c1.6,0,2.9,0.7,3.6,2.1
	c0.9,1.4,0.9,2.9,0,4.3L339.8,42c-4.1,7.1-6.2,14.6-6.2,22.6c0.1,8.1,2.2,15.7,6.4,22.4l19,31.6c0.8,1.4,0.8,2.9,0,4.4
	c-0.9,1.4-2.2,2.1-3.8,2.1h-0.3c-1.6,0-2.9-0.7-3.6-2.1l-21.9-37.3c-1.6-2.9-4.3-4.3-7.8-4.3c-3.4,0-5.9,1.4-7.5,4.3L292,123.2z"/>
<path id="XMLID_11_" class="st0" d="M390.3,11.6v109.1c0,3-1.5,4.4-4.4,4.4s-4.4-1.5-4.4-4.4V11.6c0-3,1.5-4.4,4.4-4.4
	S390.3,8.7,390.3,11.6z"/>
<path id="XMLID_25_" class="st0" d="M419.1,10.7c0-2.7,1.3-3.9,3.9-3.9h36.4c11.7,0,21.5,4.1,29.6,12.1c5,5.1,8.1,11,9.6,18
	c0.9,5.1,1.3,15,1.3,29.9s-0.5,25-1.3,30.1c-1.3,7-4.5,12.9-9.6,18c-8,8-17.9,12.1-29.6,12.1c-11.6,0-21.4-4.1-29.6-12.1
	c-5-5.1-8.1-11-9.4-18c-1-5.1-1.5-15.1-1.5-30.1V10.7H419.1z M459.5,118.9c8.8,0,16.3-3,22.4-9.1c3.9-4.1,6.5-9.2,7.8-15.3
	c0.9-4.9,1.3-14,1.3-27.7c0-13.6-0.5-22.8-1.3-27.7c-1.2-6-3.8-11.1-7.8-15.2c-6.2-6-13.7-9.1-22.4-9.1c-8.8,0-16.3,3-22.3,9.1
	c-4.1,4.1-6.6,9.2-7.8,15.2c-1,5-1.5,14.2-1.5,27.7c0,13.7,0.5,22.9,1.5,27.7c1,6.2,3.7,11.3,7.8,15.3
	C443.4,115.9,450.8,118.9,459.5,118.9z"/>
<path id="XMLID_16_" class="st0" d="M150.4,31.4C139.7,15.7,123.6,5.1,105,1.5c-10.4-2-20.8-2-30.8-0.3c-0.2,0-0.3,0-0.6,0.1
	C38.5,7.3,9,34.6,1.9,71.6C-2.6,95.4,1,119,10.8,139.3c0.1,0.3,0.2,0.6,0.5,0.8c14.6,29.8,42.7,52.7,77.8,59.4c0.1,0,0.3,0,0.5,0
	l0,0c0.1,0,0.2,0,0.3,0h0.1c0.1,0,0.2,0,0.2-0.1c0,0,0.1,0,0.1-0.1c0.1,0,0.1-0.1,0.2-0.1l0.1-0.1h0.1c0,0,0,0,0.1-0.1
	c0.1-0.1,0.1-0.1,0.2-0.2l0.1-0.1c0.1-0.1,0.1-0.1,0.2-0.2l0.1-0.1c0.1-0.1,0.1-0.2,0.1-0.3v-0.1c0-0.1,0.5-1.2,0.1-2
	c-0.1-0.2-0.5-1.2-0.5-1.2c-12.1-17.8-12-38.4-9.6-52.8c0.5-2.4,3.1-11.8,17.4-11.1l0.1,0.1c13.3,1.3,26.6-2,37.8-9.6
	c12.7-8.6,21.2-21.6,24-36.7C164.9,65.9,161.1,47,150.4,31.4z M68.9,63.2L68.9,63.2L68.9,63.2C69,63,69,63,68.9,63.2
	c0.6-0.8,5.5-6.4,13-7.3c0.1,0,0.2,0,0.5-0.1c2.9,0,5.5,0.6,7.7,1.9c1.3,0.8,2.3,1.7,3.3,2.7c0.2,0.3,4.1,3.1-1.7,4.5l0,0
	c-5.8,1.9-10.1,6.6-11.3,12.9c-1,5.5,0.6,10.9,3.6,15.4c0,0,1.9,3,1.9,10.2v0.1c0,3.5-1.2,8,0.6,13.8l0,0c0,0,2.6,6.7-4.2,3
	c-5.1-3-9.5-7.3-13-12.3c-6.2-9.1-8.5-20.1-6.4-30.9C63.7,71.9,65.8,67.1,68.9,63.2z M97.6,96.6c-3.9-0.8-7.4-3-9.8-6.4
	s-3.1-7.4-2.3-11.4c1.2-6.3,8.8-9.6,14.2-9.6c5.1,0,9.6,2.8,12.4,7.5c2.8,4.9,3.8,11.4-2,16.9C106.9,96.4,102,97.4,97.6,96.6z
	 M105.4,65.1L105.4,65.1c-2.3-1.5-5.1-4.1-5.5-4.8c0,0-0.1,0-0.1-0.1l0,0l0,0c-1.4-2.3-3.6-5.3-7-7.3c-1.3-0.8-2.7-1.4-4.2-1.9
	c3.9-0.7,7.9-0.7,12,0c12,2.2,20.3,12.5,20.5,24.3c-0.3,11.3-2.7,3.5-2.7,3.5l0,0c-0.5-1.9-1-3.4-1.7-4.6
	C113.9,69.5,110,66.5,105.4,65.1z M146,34.4c1.4,2.1,2.7,4.2,3.8,6.3c2.1,3.9,9.3,20.2-2,32.2c-2.9,2.4-4.4,4.1-7.1,5.1
	c-9.4,2.7-13.3-11.7-13.3-11.7l0,0C123.9,60,120,54.7,114.8,51c-3.7-3.6-5.7-8.1-6-11.3c0.2-7.1-1.2-16.6-6.7-24.5
	c-0.8-1.2-1.9-2.3-2.9-3.4c-0.2-0.7-1.5-6.3,7.4-4.6C122.7,11,136.6,20.6,146,34.4z M7.2,72.7c6.3-33.1,31.6-57.8,62.3-65.1
	c3.9-0.6,8.8-0.6,14,0.9c5.9,2,10.6,5.3,13.7,9.9c2.2,3,3.5,6.5,4.3,9.9c0.2,1,1.6,11.4-11.7,17.5l0,0c-5.9,0.7-12,2.8-16.9,6.3
	c-6.2,4.2-10.4,10-13.9,16.6l0,0c-2.3,9.2-8.9,13.2-11.6,14.6c-1.6,0.9-6.3,3.4-9.1,5.5c-4.5,3-9.5,7.7-14.2,13.5l0,0
	c-13.2,20.9-17.2,6.7-17.5,5C4.8,95.8,5,84.5,7.2,72.7z M26.5,155c-10.1-13.2-8.4-25.5-6.7-31c4.5-13.3,11.8-23.9,21.4-30.9
	c0.8-0.6,1.5-1,2.2-1.5c0.5-0.2,11.8-7.4,14.4,3.5c0,0.2,0.1,0.3,0.1,0.6c0,0,0,0,0,0.1l0,0c1.3,5.3,3.6,10.4,6.7,15.1
	c2.6,3.7,5.5,7,8.8,9.8c2.1,2.2,5.2,7.1,3.9,15.6c-0.1,1-0.2,2-0.3,2.6c-1.7,9.5-2.8,22.5,0,36l0,0l0,0c0.3,1.6,0.8,3.4,1.3,5
	c0.9,5,1,11.6-5.6,10.1c-1.5-0.6-2.9-1.2-4.4-1.7c-3.1-1.6-5.2-2.7-6.7-3.1C47.9,177.5,35.8,167.3,26.5,155z M134.4,116.9
	c-7.8,5.3-16.7,8.4-25.9,8.9c-0.5,0-0.9-0.1-1.4-0.1c-9.2-0.6-12.9-4.6-14-6.4c-0.9-1.9-1.6-3.6-2.1-5.3l0,0c0,0-3.7-10.7,10.3-11.8
	c0.7,0,1.4-0.1,2.2-0.1c0,0,0,0,0.1,0l0,0c3.4-0.3,6.6-1.3,9.5-2.9c0.1,0,4.4-2.8,4.4-2.8c1.4-1.2,11.6-9.5,22.2-13l0,0
	c0.8-0.2,1.6-0.6,2.6-0.9c1.3-0.5,2.8-0.9,3.6-1.4c1.2-0.6,2.9-1.6,4.1-2.4c1.2-0.8,8.5-6.5,7.4,1.6c0,0-0.3,1.9-0.7,3.4
	C153.5,97.9,145.9,109,134.4,116.9z"/>
</svg>
