<?xml version="1.0" encoding="utf-8"?>
<!-- Generator: Adobe Illustrator 19.0.0, SVG Export Plug-In . SVG Version: 6.00 Build 0)  -->
<svg version="1.1" id="Слой_1" xmlns="http://www.w3.org/2000/svg" xmlns:xlink="http://www.w3.org/1999/xlink" x="0px" y="0px"
	 width="48px" height="48px" viewBox="-281 373 48 48" style="enable-background:new -281 373 48 48;" xml:space="preserve">
<style type="text/css">
	.st0{opacity:0.19;enable-background:new    ;}
	.st1{fill:#3A4631;}
	.st2{fill:#242B1F;}
	.st3{fill:#0E110C;}
</style>
<ellipse class="st0" cx="-257.5" cy="417.7" rx="10.4" ry="3.3"/>
<path class="st1" d="M-242,388.5c0,8.6-15.5,29.3-15.5,29.3s-15.5-20.7-15.5-29.3s6.9-15.5,15.5-15.5S-242,379.9-242,388.5z"/>
<circle class="st2" cx="-257.4" cy="388.5" r="5.9"/>
<path class="st3" d="M-257.4,384.6c2.9,0,5.3,2.1,5.8,4.9c0.1-0.3,0.1-0.7,0.1-1c0-3.2-2.6-5.9-5.9-5.9c-3.2,0-5.9,2.6-5.9,5.9
	c0,0.3,0,0.7,0.1,1C-262.7,386.7-260.3,384.6-257.4,384.6z"/>
</svg>
